<svg id="Layer_1" data-name="Layer 1" xmlns="http://www.w3.org/2000/svg" xmlns:xlink="http://www.w3.org/1999/xlink" viewBox="0 0 327.43832 124.45068"><defs><linearGradient id="linear-gradient" x1="26.63116" y1="63.8412" x2="140.14143" y2="63.8412" gradientTransform="matrix(1, 0, 0, -1, 0, 126)" gradientUnits="userSpaceOnUse"><stop offset="0" stop-color="#00dcdc"/><stop offset="0.5" stop-color="#8c73ff"/><stop offset="1" stop-color="#3c78ff"/></linearGradient></defs><path d="M117.75046,45.17431a22.629,22.629,0,0,0-11.80908,3.12077,22.70246,22.70246,0,0,0-45.25921,2.54227V68.08451l-.09342,5.46043a11.29374,11.29374,0,0,1-11.084,11.28169,11.47219,11.47219,0,0,1-11.525-11.41909q-.00019-.04273-.00007-.08547V56.50122a5.669,5.669,0,0,0-5.67418-5.66382h-.00006a5.669,5.669,0,0,0-5.67425,5.66375V73.16972A22.978,22.978,0,0,0,49.58243,96.1578,22.68145,22.68145,0,0,0,72.03357,73.49963V51.06116a11.51964,11.51964,0,0,1,11.487-11.55224q.04273-.00012.08548.00008A11.34054,11.34054,0,0,1,94.73609,50.83735V79.16353a5.67042,5.67042,0,0,0,5.67562,5.6652h0a5.67041,5.67041,0,0,0,5.67562-5.66519V68.05683A11.51956,11.51956,0,0,1,117.5742,56.50467q.043-.00012.08593.00007A11.34034,11.34034,0,0,1,128.78987,67.833V90.49387a5.67052,5.67052,0,0,0,5.67571,5.66529h0a5.6705,5.6705,0,0,0,5.6757-5.66529V68.11578A22.86375,22.86375,0,0,0,117.75046,45.17431Z" fill="url(#linear-gradient)"/><path d="M181.95111,56.7914V71.74063h-.003a6.1617,6.1617,0,0,1-12.32339,0h-.003V56.7914h-6.8181V72.36582h.01818a13.20023,13.20023,0,0,0,.322,2.34368,12.98771,12.98771,0,0,0,25.28533,0,13.20128,13.20128,0,0,0,.322-2.34368h.01818V56.7914Z" fill="#fff"/><path d="M237.78322,69.14816a13.20025,13.20025,0,0,0-.322-2.34368A12.98386,12.98386,0,0,0,215.245,61.00691a12.98377,12.98377,0,0,0-22.21546,5.79845,13.20117,13.20117,0,0,0-.322,2.34368h-.01817V84.72346h6.81818V69.77408h.003a6.1617,6.1617,0,0,1,12.3234,0h.00178v14.9485h.00121v.00088h6.81815V69.77335h.00181a6.1617,6.1617,0,0,1,12.3234,0h.003V84.72258h6.81815V69.14816Z" fill="#fff"/><path d="M269.42047,72.86758a13.92582,13.92582,0,1,0-1.12784,3.7675h-8.1777a7.35392,7.35392,0,0,1-11.52141-3.7675ZM255.64813,63.44a7.35781,7.35781,0,0,1,6.94263,4.92137H248.70848A7.35613,7.35613,0,0,1,255.64813,63.44Z" fill="#fff"/><path d="M301.08356,72.86758a13.92582,13.92582,0,1,0-1.12784,3.7675H291.778a7.35392,7.35392,0,0,1-11.52143-3.7675ZM287.31125,63.44a7.3578,7.3578,0,0,1,6.94263,4.92137h-13.8823A7.35617,7.35617,0,0,1,287.31125,63.44Z" fill="#fff"/></svg>